<svg width="21" height="14" viewBox="0 0 21 14" fill="none" xmlns="http://www.w3.org/2000/svg">
<path d="M5.4708 13.7517C4.4988 13.7517 3.6168 13.4937 2.8248 12.9777C2.0328 12.4617 1.4028 11.7117 0.934796 10.7277C0.478796 9.73169 0.250796 8.54969 0.250796 7.18169C0.250796 5.81369 0.478796 4.63769 0.934796 3.65369C1.4028 2.65769 2.0328 1.90169 2.8248 1.38569C3.6168 0.869689 4.4988 0.611689 5.4708 0.611689C6.4428 0.611689 7.3248 0.869689 8.1168 1.38569C8.9088 1.90169 9.5328 2.65769 9.9888 3.65369C10.4568 4.63769 10.6908 5.81369 10.6908 7.18169C10.6908 8.54969 10.4568 9.73169 9.9888 10.7277C9.5328 11.7117 8.9088 12.4617 8.1168 12.9777C7.3248 13.4937 6.4428 13.7517 5.4708 13.7517ZM5.4708 13.3917C6.8508 13.3917 7.5408 11.3217 7.5408 7.18169C7.5408 3.04169 6.8508 0.971689 5.4708 0.971689C4.0908 0.971689 3.4008 3.04169 3.4008 7.18169C3.4008 11.3217 4.0908 13.3917 5.4708 13.3917ZM12.0394 12.6717C12.0394 11.9637 12.1774 11.3217 12.4534 10.7457C12.7414 10.1577 13.0894 9.64769 13.4974 9.21569C13.9054 8.78369 14.4394 8.27369 15.0994 7.68569C15.7114 7.14569 16.1914 6.69569 16.5394 6.33569C16.8874 5.96369 17.1814 5.54969 17.4214 5.09369C17.6614 4.62569 17.7814 4.12169 17.7814 3.58169C17.7814 2.78969 17.5894 2.17169 17.2054 1.72769C16.8214 1.28369 16.3234 1.06169 15.7114 1.06169C15.3634 1.06169 15.0094 1.10969 14.6494 1.20569L14.2714 1.33169V4.21169L14.0374 4.26569C13.8454 4.28969 13.6834 4.30169 13.5514 4.30169C13.1434 4.30169 12.8134 4.18169 12.5614 3.94169C12.3214 3.68969 12.2014 3.35969 12.2014 2.95169C12.2014 2.56769 12.3454 2.19569 12.6334 1.83569C12.9334 1.47569 13.3714 1.18169 13.9474 0.953689C14.5354 0.725689 15.2434 0.611689 16.0714 0.611689C17.6914 0.611689 18.8914 0.935689 19.6714 1.58369C20.4514 2.23169 20.8414 3.13769 20.8414 4.30169C20.8414 5.03369 20.6494 5.66369 20.2654 6.19169C19.8934 6.71969 19.4314 7.15769 18.8794 7.50569C18.3394 7.85369 17.6134 8.24969 16.7014 8.69369C15.9334 9.06569 15.3094 9.39569 14.8294 9.68369C14.3614 9.95969 13.9234 10.2957 13.5154 10.6917C13.1194 11.0877 12.8374 11.5377 12.6694 12.0417H19.3294C19.4134 11.3937 19.6174 10.8537 19.9414 10.4217C20.0734 10.2177 20.2294 10.0377 20.4094 9.88169H20.9494V13.4817H12.0394V12.6717Z" fill="white"/>
</svg>
